<svg width="27" height="28" viewBox="0 0 27 28" fill="none" xmlns="http://www.w3.org/2000/svg">
<path d="M15.5 3.14286V1.14286H11.5V3.14286H15.5ZM11.5 26C11.5 27.1046 12.3954 28 13.5 28C14.6046 28 15.5 27.1046 15.5 26H11.5ZM2 2V0H0V2H2ZM25 2H27V0H25V2ZM0 6.57143C0 7.676 0.89543 8.57143 2 8.57143C3.10457 8.57143 4 7.676 4 6.57143H0ZM23 6.57143C23 7.676 23.8954 8.57143 25 8.57143C26.1046 8.57143 27 7.676 27 6.57143H23ZM6.6 11.1429V9.14286H4.6V11.1429H6.6ZM20.4 11.1429H22.4V9.14286H20.4V11.1429ZM4.6 15.7143C4.6 16.8189 5.49543 17.7143 6.6 17.7143C7.70457 17.7143 8.6 16.8189 8.6 15.7143H4.6ZM18.4 15.7143C18.4 16.8189 19.2954 17.7143 20.4 17.7143C21.5046 17.7143 22.4 16.8189 22.4 15.7143H18.4ZM11.5 3.14286V26H15.5V3.14286H11.5ZM2 4H25V0H2V4ZM0 2V6.57143H4V2H0ZM23 2V6.57143H27V2H23ZM6.6 13.1429H20.4V9.14286H6.6V13.1429ZM4.6 11.1429V15.7143H8.6V11.1429H4.6ZM18.4 11.1429V15.7143H22.4V11.1429H18.4Z" fill="#292D32"/>
</svg>
